<mxfile host="app.diagrams.net" modified="2023-12-01T13:40:28.782Z" agent="Mozilla/5.0 (Windows NT 10.0; Win64; x64) AppleWebKit/537.36 (KHTML, like Gecko) Chrome/119.0.0.0 Safari/537.36" etag="6WYdbnBULojHh-ify2jG" version="22.1.5" type="github">
  <diagram name="Page-1" id="hX3njrNeLMJxXCk_QEPV">
    <mxGraphModel dx="1674" dy="1558" grid="0" gridSize="10" guides="1" tooltips="1" connect="1" arrows="1" fold="1" page="0" pageScale="1" pageWidth="827" pageHeight="1169" math="0" shadow="0">
      <root>
        <mxCell id="0" />
        <mxCell id="1" parent="0" />
        <mxCell id="JGOCP85wa1aESRFla-1a-1" value="prix &amp;lt;- [10,20,22,56,41,50]" style="rounded=0;whiteSpace=wrap;html=1;fontSize=16;" parent="1" vertex="1">
          <mxGeometry x="243" y="-690" width="298" height="87" as="geometry" />
        </mxCell>
        <mxCell id="JGOCP85wa1aESRFla-1a-2" value="prix remisé.push( prix[i] - (prix[i]*0.1)" style="rounded=0;whiteSpace=wrap;html=1;fontSize=16;" parent="1" vertex="1">
          <mxGeometry x="233" y="-282" width="300" height="75" as="geometry" />
        </mxCell>
        <mxCell id="JGOCP85wa1aESRFla-1a-3" value="&#xa;&lt;span style=&quot;color: rgb(0, 0, 0); font-family: Helvetica; font-size: 16px; font-style: normal; font-variant-ligatures: normal; font-variant-caps: normal; font-weight: 400; letter-spacing: normal; orphans: 2; text-align: center; text-indent: 0px; text-transform: none; widows: 2; word-spacing: 0px; -webkit-text-stroke-width: 0px; background-color: rgb(255, 255, 255); text-decoration-thickness: initial; text-decoration-style: initial; text-decoration-color: initial; float: none; display: inline !important;&quot;&gt;pour i&amp;nbsp; de 0 à taille tableau prix&lt;/span&gt;&#xa;&#xa;" style="rounded=1;whiteSpace=wrap;html=1;fontSize=16;" parent="1" vertex="1">
          <mxGeometry x="164" y="-399" width="446" height="85" as="geometry" />
        </mxCell>
        <mxCell id="JGOCP85wa1aESRFla-1a-4" value="prix remisé &amp;lt;- []" style="rounded=0;whiteSpace=wrap;html=1;fontSize=16;" parent="1" vertex="1">
          <mxGeometry x="230" y="-543" width="298" height="87" as="geometry" />
        </mxCell>
        <mxCell id="JGOCP85wa1aESRFla-1a-5" value="&lt;br&gt;&lt;span style=&quot;border-color: var(--border-color); color: rgb(0, 0, 0); font-family: Helvetica; font-size: 16px; font-style: normal; font-variant-ligatures: normal; font-variant-caps: normal; font-weight: 400; letter-spacing: normal; orphans: 2; text-align: center; text-indent: 0px; text-transform: none; widows: 2; word-spacing: 0px; -webkit-text-stroke-width: 0px; text-decoration-thickness: initial; text-decoration-style: initial; text-decoration-color: initial; background-color: rgb(255, 255, 255); float: none; display: inline !important;&quot;&gt;fin pour i&amp;nbsp;&lt;span&gt;&amp;nbsp;&lt;/span&gt;&lt;/span&gt;" style="rounded=1;whiteSpace=wrap;html=1;fontSize=16;" parent="1" vertex="1">
          <mxGeometry x="192" y="-167" width="429" height="78" as="geometry" />
        </mxCell>
        <mxCell id="JGOCP85wa1aESRFla-1a-7" value="ecrire prix remisé&lt;br&gt;&amp;nbsp;" style="shape=parallelogram;perimeter=parallelogramPerimeter;whiteSpace=wrap;html=1;fixedSize=1;fontSize=16;" parent="1" vertex="1">
          <mxGeometry x="174" y="-49" width="400" height="68" as="geometry" />
        </mxCell>
      </root>
    </mxGraphModel>
  </diagram>
</mxfile>
